<svg id="Layer_1" data-name="Layer 1" xmlns="http://www.w3.org/2000/svg" xmlns:xlink="http://www.w3.org/1999/xlink" viewBox="0 0 500 500"><defs><style>.cls-1{fill:#155183;}.cls-2{fill:#fff;}.cls-3{fill:#2596ff;}.cls-4{fill:#145182;}.cls-5{fill:#5bc5d3;}.cls-6{fill:url(#linear-gradient);}.cls-7{fill:#b70b09;}</style><linearGradient id="linear-gradient" x1="122.88" y1="298.09" x2="122.88" y2="203.91" gradientUnits="userSpaceOnUse"><stop offset="0" stop-color="#27aae1" stop-opacity="0"/><stop offset="0.01" stop-color="#27aae1" stop-opacity="0.12"/><stop offset="0.03" stop-color="#27aae1" stop-opacity="0.3"/><stop offset="0.06" stop-color="#27aae1" stop-opacity="0.47"/><stop offset="0.09" stop-color="#27aae1" stop-opacity="0.61"/><stop offset="0.12" stop-color="#27aae1" stop-opacity="0.74"/><stop offset="0.15" stop-color="#27aae1" stop-opacity="0.83"/><stop offset="0.19" stop-color="#27aae1" stop-opacity="0.91"/><stop offset="0.24" stop-color="#27aae1" stop-opacity="0.96"/><stop offset="0.31" stop-color="#27aae1" stop-opacity="0.99"/><stop offset="0.5" stop-color="#27aae1"/><stop offset="0.69" stop-color="#27aae1" stop-opacity="0.99"/><stop offset="0.76" stop-color="#27aae1" stop-opacity="0.96"/><stop offset="0.81" stop-color="#27aae1" stop-opacity="0.91"/><stop offset="0.85" stop-color="#27aae1" stop-opacity="0.83"/><stop offset="0.88" stop-color="#27aae1" stop-opacity="0.74"/><stop offset="0.91" stop-color="#27aae1" stop-opacity="0.61"/><stop offset="0.94" stop-color="#27aae1" stop-opacity="0.47"/><stop offset="0.96" stop-color="#27aae1" stop-opacity="0.3"/><stop offset="0.99" stop-color="#27aae1" stop-opacity="0.12"/><stop offset="1" stop-color="#27aae1" stop-opacity="0"/></linearGradient></defs><title>Affinity Logo</title><rect class="cls-1" x="130.71" y="262.61" width="343.68" height="34.25"/><path class="cls-2" d="M143.06,274.66H138.4v-2.72H151v2.72h-4.65v12.61h-3.31Z"/><path class="cls-2" d="M157.42,281.13v6.14h-3.24V271.94h6.73c3.35,0,5.15,1.84,5.15,4.21a3.66,3.66,0,0,1-2.23,3.62c.76.29,1.9,1.08,1.9,3.82v.76a12.26,12.26,0,0,0,.22,2.92h-3.14a10.74,10.74,0,0,1-.32-3.44v-.23c0-1.67-.42-2.47-2.89-2.47Zm0-2.64h2.78c1.81,0,2.51-.69,2.51-2s-.81-1.94-2.43-1.94h-2.86Z"/><path class="cls-2" d="M173.26,283.73l-1.2,3.54H168.8L174,271.94h4.16l5.44,15.33h-3.49l-1.26-3.54Zm4.89-2.72c-1.09-3.23-1.79-5.3-2.16-6.68h0c-.38,1.51-1.14,3.92-2,6.68Z"/><path class="cls-2" d="M186.68,287.27V271.94h4.11c1.92,3.44,5.46,9.65,6.16,11.32h0c-.17-1.6-.17-4.26-.17-6.78v-4.54h3v15.33h-3.9c-1.65-3-5.57-10.13-6.33-11.9h0c.11,1.34.15,4.49.15,7.24v4.66Z"/><path class="cls-2" d="M206.74,282.78c.35,1.54,1.45,2.21,3.22,2.21s2.53-.7,2.53-1.82-.74-1.79-3.36-2.4c-4.17-1-5.2-2.5-5.2-4.57,0-2.67,2-4.48,5.62-4.48,4.08,0,5.7,2.18,5.92,4.43h-3.34c-.16-.95-.68-2-2.66-2-1.35,0-2.16.55-2.16,1.64s.65,1.5,3.13,2.08c4.46,1.05,5.44,2.7,5.44,4.87,0,2.8-2.12,4.72-6.17,4.72s-6-1.92-6.31-4.71Z"/><path class="cls-2" d="M226.21,271.94h3.32v12.61h7.64l-.38,2.72H226.21Z"/><path class="cls-2" d="M254.11,279.55c0,4.27-2.56,7.94-7.54,7.94-4.81,0-7.33-3.49-7.33-7.89s2.78-7.88,7.54-7.88C251.27,271.72,254.11,274.86,254.11,279.55Zm-11.45,0c0,3,1.32,5.26,4,5.26,2.95,0,4-2.47,4-5.21,0-2.9-1.19-5.18-4.05-5.18S242.66,276.55,242.66,279.54Z"/><path class="cls-2" d="M271.46,287.27H269a9.15,9.15,0,0,1-.26-1.51c-.85,1.14-2.34,1.77-4.47,1.77-4.45,0-6.94-3.37-6.94-7.73,0-4.61,2.68-8.08,7.51-8.08,3.95,0,6.27,2.22,6.64,4.84H268.2a3.13,3.13,0,0,0-3.37-2.25c-3.15,0-4.05,2.64-4.05,5.34s1,5.24,4.07,5.24a3,3,0,0,0,3.36-3.34v-.14h-3.37v-2.72h6.62Z"/><path class="cls-2" d="M279.26,271.94v15.33H276V271.94Z"/><path class="cls-2" d="M286.17,282.78c.35,1.54,1.46,2.21,3.23,2.21s2.53-.7,2.53-1.82-.74-1.79-3.36-2.4c-4.17-1-5.21-2.5-5.21-4.57,0-2.67,2-4.48,5.63-4.48,4.07,0,5.7,2.18,5.92,4.43h-3.35c-.16-.95-.68-2-2.65-2-1.35,0-2.16.55-2.16,1.64s.65,1.5,3.13,2.08c4.46,1.05,5.43,2.7,5.43,4.87,0,2.8-2.11,4.72-6.17,4.72-3.89,0-5.94-1.92-6.31-4.71Z"/><path class="cls-2" d="M302.09,274.66h-4.66v-2.72h12.62v2.72h-4.64v12.61h-3.32Z"/><path class="cls-2" d="M316.53,271.94v15.33h-3.32V271.94Z"/><path class="cls-2" d="M334.3,282.54c-.62,2.86-2.78,4.95-6.62,4.95-4.86,0-7.16-3.44-7.16-7.81,0-4.2,2.37-8,7.32-8,4.09,0,6.06,2.39,6.44,5H331a3,3,0,0,0-3.22-2.37c-2.74,0-3.79,2.46-3.79,5.25,0,2.6.91,5.33,3.88,5.33a3,3,0,0,0,3.13-2.35Z"/><path class="cls-2" d="M340.44,282.78c.35,1.54,1.46,2.21,3.23,2.21s2.53-.7,2.53-1.82-.74-1.79-3.36-2.4c-4.17-1-5.2-2.5-5.2-4.57,0-2.67,2-4.48,5.62-4.48,4.07,0,5.7,2.18,5.92,4.43h-3.34c-.16-.95-.69-2-2.66-2-1.35,0-2.16.55-2.16,1.64s.65,1.5,3.13,2.08c4.46,1.05,5.44,2.7,5.44,4.87,0,2.8-2.12,4.72-6.18,4.72-3.89,0-5.94-1.92-6.3-4.71Z"/><path class="cls-2" d="M359.92,271.94h6.34c3.26,0,5.47,1.83,5.47,4.75,0,3.33-2.52,4.85-5.54,4.85h-2.95v5.73h-3.32Zm3.32,7h2.53c1.53,0,2.62-.59,2.62-2.16s-1.15-2.17-2.55-2.17h-2.6Z"/><path class="cls-2" d="M379.37,287.27,374,271.94h3.57l2.28,7.08c.69,2.14,1.21,4,1.57,5.53h0c.32-1.43.91-3.31,1.64-5.48l2.4-7.13h3.38l-5.56,15.33Z"/><path class="cls-2" d="M396,274.66h-4.66v-2.72H404v2.72h-4.64v12.61H396Z"/><path class="cls-2" d="M404.84,287.27v-3.91h3.42v3.91Z"/><path class="cls-2" d="M425.26,271.94h3.32v12.61h7.64l-.38,2.72H425.26Z"/><path class="cls-2" d="M440.16,274.66H435.5v-2.72h12.61v2.72h-4.64v12.61h-3.31Z"/><path class="cls-2" d="M451.28,271.94h6.08c4.46,0,7.38,2.94,7.38,7.47s-2.83,7.86-7.52,7.86h-5.94Zm3.31,12.65h2.49c2.94,0,4.24-2.18,4.24-5.17,0-2.51-1.22-4.8-4.22-4.8h-2.51Z"/><polygon class="cls-3" points="94.41 224.1 70.07 224.1 58.75 204.69 83.2 204.69 94.41 224.1"/><polygon class="cls-4" points="70.07 224.1 57.84 245.74 46.72 226.68 46.39 226.11 46.39 226.1 58.75 204.69 70.07 224.1"/><polygon class="cls-3" points="50.27 261.53 39.13 281.03 39.13 281.03 39.12 281.03 26.9 259.86 26.9 259.86 38.11 240.45 50.27 261.53"/><polygon class="cls-4" points="75.13 261.3 63.86 281.03 63.85 281.03 39.13 281.03 39.13 281.03 50.27 261.53 75.13 261.3"/><polygon class="cls-3" points="115.05 259.98 102.9 281.03 102.89 281.03 102.83 281.15 80.41 281.15 80.48 281.03 92.59 260.07 114.98 259.98 115.05 259.98"/><polygon class="cls-4" points="115.05 259.98 114.98 259.98 92.59 260.07 79.96 238.66 102.69 238.56 115.02 259.92 115.05 259.98"/><polygon class="cls-5" points="94.8 227.65 91.92 232.74 90.61 235.07 90.58 235.07 73.77 235.14 88.48 260.09 77.41 279.26 73.16 271.9 81.28 257.7 52.32 257.96 40.86 238.13 49.29 238.13 57.89 252.86 72.14 227.65 94.8 227.65"/><rect class="cls-6" x="122.35" y="203.91" width="1.06" height="94.17"/><path class="cls-1" d="M130.64,256c.06-.37.1-.6.19-.68l25.57-48.16a3.75,3.75,0,0,1,3.39-2.19h11.7a2.49,2.49,0,0,1,2.65,2.19l9.46,48.16c.06.08,0,.31,0,.68a2,2,0,0,1-1.85,1.59H172a2,2,0,0,1-2.29-1.66l-2.14-10.65a61.35,61.35,0,0,1-20.26,3.32h-2.57a2.49,2.49,0,0,1,1.73,1.44,3.28,3.28,0,0,1-.36,3l-1.54,2.87a3,3,0,0,1-2.84,1.66H132a1.48,1.48,0,0,1-1.05-.46A1.58,1.58,0,0,1,130.64,256Zm32.75-37.82-10.08,19.63c3.89-.23,9.33-1.13,13.12-3Z"/><path class="cls-1" d="M194.66,211.26a8.53,8.53,0,0,1,2.84-4.76,10,10,0,0,1,2.34-1.35,7.27,7.27,0,0,1,2.49-.46H232.6a1.72,1.72,0,0,1,1.63,2l-1.33,8a2,2,0,0,1-.82,1.28,2.12,2.12,0,0,1-1.45.53H203.45a3.39,3.39,0,0,1,3.47,4.08L205.85,227H224c1.28,0,1.85.68,1.63,2l-1.32,7.92a2,2,0,0,1-.76,1.36,2.18,2.18,0,0,1-1.52.53H199.73a3.41,3.41,0,0,1,3.48,4l-2.12,12.68a2.21,2.21,0,0,1-.76,1.36,1.86,1.86,0,0,1-1.44.53h-10a1.49,1.49,0,0,1-1.58-1.89Z"/><path class="cls-1" d="M239.05,211.26a8.53,8.53,0,0,1,2.84-4.76,10,10,0,0,1,2.34-1.35,7.27,7.27,0,0,1,2.49-.46H277a1.72,1.72,0,0,1,1.63,2l-1.33,8a2,2,0,0,1-.82,1.28,2.12,2.12,0,0,1-1.45.53H247.84a3.39,3.39,0,0,1,3.47,4.08L250.24,227h18.12c1.28,0,1.85.68,1.63,2l-1.33,7.92a1.91,1.91,0,0,1-.75,1.36,2.18,2.18,0,0,1-1.52.53H244.12a3.41,3.41,0,0,1,3.48,4l-2.12,12.68a2.21,2.21,0,0,1-.76,1.36,1.86,1.86,0,0,1-1.44.53h-10a1.48,1.48,0,0,1-1.58-1.89Z"/><path class="cls-1" d="M283.28,211.34a8,8,0,0,1,7.67-6.57h6a1.38,1.38,0,0,1,1.28.53,1.62,1.62,0,0,1,.3,1.35l-8.18,48.85a2.39,2.39,0,0,1-2.2,1.89H277.46a1.71,1.71,0,0,1-1.57-1.89Z"/><path class="cls-1" d="M305.71,211.26a8.1,8.1,0,0,1,7.67-6.57h2.49a3.79,3.79,0,0,1,3.91,2.34c2.18,4.61,4.19,8.84,5.91,12.53,1.05,2.27,2,4.08,2.57,5.37s1.16,2.56,1.72,3.69,1,2.12,1.4,2.95.61,1.28.67,1.43l4.31-21.74a8,8,0,0,1,7.74-6.57h4.83a1.56,1.56,0,0,1,1.28.53,1.86,1.86,0,0,1,.28,1.43l-8.14,48.7a2.52,2.52,0,0,1-.76,1.36,2.28,2.28,0,0,1-1.46.6H331.6a2.28,2.28,0,0,1-2.32-1.43q-3.37-6.91-6.07-12.46c-1.07-2.19-2-4-2.58-5.36s-1.23-2.57-1.8-3.7-1-2-1.4-2.87a12.67,12.67,0,0,1-.68-1.36l-5,25.29a2.38,2.38,0,0,1-2.28,1.89H299.9a1.71,1.71,0,0,1-1.58-1.89Z"/><path class="cls-1" d="M357.56,211.34a8,8,0,0,1,7.67-6.57h6a1.37,1.37,0,0,1,1.27.53,1.58,1.58,0,0,1,.3,1.35l-8.17,48.85a2.39,2.39,0,0,1-2.2,1.89H351.75a1.72,1.72,0,0,1-1.58-1.89Z"/><path class="cls-1" d="M420.35,204.69a1.53,1.53,0,0,1,1.65,1.89L420.58,215a2.25,2.25,0,0,1-2.27,1.89H400.79a3.52,3.52,0,0,1,3.65,3.93l-5.79,34.57a2,2,0,0,1-.81,1.29,2.19,2.19,0,0,1-1.45.53h-10.5a1.59,1.59,0,0,1-1.27-.53,1.41,1.41,0,0,1-.38-1.29l6.06-36.23a1.84,1.84,0,0,0-1.89-2.27H377.47a1.59,1.59,0,0,1-1.65-1.89l.64-3.85a8.16,8.16,0,0,1,7.66-6.49Z"/><path class="cls-1" d="M436.59,242.14a8.85,8.85,0,0,0-.3-4.53l-11.23-30.35a1.42,1.42,0,0,1-.09-.83,2,2,0,0,1,1.85-1.59h9.89a3.91,3.91,0,0,1,1.6.38,2,2,0,0,1,.84,1.28c1.27,3.25,2.44,6.19,3.43,8.84.57,1.58,1.1,2.87,1.48,3.77l1,2.64a10.2,10.2,0,0,0,.8,2c.21.53.3.91.36,1,.77-.07,1-.45,1.46-1.05s.89-1.29,1.56-2.12,1.29-1.81,2.08-2.94l2.37-3.32c1.87-2.65,4-5.59,6.38-8.84a3.7,3.7,0,0,1,3-1.66H473a1.51,1.51,0,0,1,1.05.46,1.53,1.53,0,0,1,.26,1.13,1.77,1.77,0,0,1-.36.83c-3.85,5.43-7.32,10.34-10.38,14.64-2.46,3.48-4.95,7-7.43,10.57-.9,1.36-1.7,2.49-2.38,3.4l-1.18,1.66a8.6,8.6,0,0,0-1.11,2.12,9.46,9.46,0,0,0-.68,2.26l-2.29,13.67a1.91,1.91,0,0,1-.75,1.35,2.18,2.18,0,0,1-1.52.53H435.91a1.48,1.48,0,0,1-1.57-1.88Z"/><path class="cls-7" d="M27.4,290.54l.1,0h.09a.44.44,0,0,1,.34.14.51.51,0,0,1,.12.36.57.57,0,0,1-.16.41.55.55,0,0,1-.4.15.53.53,0,0,1-.43-.19.82.82,0,0,1-.16-.51,1.33,1.33,0,0,1,.4-.95,2.76,2.76,0,0,1,1.11-.68v.33a2.22,2.22,0,0,0-.67.44A1.18,1.18,0,0,0,27.4,290.54Zm1.78,0,.1,0h.09a.44.44,0,0,1,.34.14.51.51,0,0,1,.12.36.53.53,0,0,1-.16.41.55.55,0,0,1-.4.15.51.51,0,0,1-.43-.19.76.76,0,0,1-.16-.51,1.33,1.33,0,0,1,.4-.95,2.76,2.76,0,0,1,1.11-.68v.33a2.22,2.22,0,0,0-.67.44A1.27,1.27,0,0,0,29.18,290.54Z"/><path class="cls-7" d="M30.18,295.07l.13-.52h.07a.64.64,0,0,0,.4-.1.68.68,0,0,0,.2-.36l.9-3.49a1.06,1.06,0,0,0,0-.19,1.21,1.21,0,0,0,0-.19.26.26,0,0,0-.14-.26,1.15,1.15,0,0,0-.49-.07h-.07l.12-.52h2.16a7.46,7.46,0,0,1,1,.05,2.4,2.4,0,0,1,.59.19,2.06,2.06,0,0,1,.87.86,2.51,2.51,0,0,1,.32,1.28,3.53,3.53,0,0,1-.32,1.51,3.32,3.32,0,0,1-.91,1.19,2.44,2.44,0,0,1-.87.47,3.94,3.94,0,0,1-1.16.15Zm2.59-4.47-.83,3.23c0,.1,0,.17-.05.23a.62.62,0,0,0,0,.13.31.31,0,0,0,.21.31,2.34,2.34,0,0,0,.78.09,2.15,2.15,0,0,0,.85-.16,1.93,1.93,0,0,0,.66-.48,3.16,3.16,0,0,0,.65-1.11,4.18,4.18,0,0,0,.23-1.39,1.61,1.61,0,0,0-.38-1.16,1.41,1.41,0,0,0-1.09-.42,1.05,1.05,0,0,0-.66.19A.9.9,0,0,0,32.77,290.6Z"/><path class="cls-7" d="M39.38,293.81a3.23,3.23,0,0,1-.69,1,1.1,1.1,0,0,1-.79.35.61.61,0,0,1-.49-.19.77.77,0,0,1-.18-.54,2.13,2.13,0,0,1,.08-.55,5.22,5.22,0,0,1,.22-.72c.06-.17.15-.39.25-.67a4.55,4.55,0,0,0,.3-.94.26.26,0,0,0,0-.19.17.17,0,0,0-.14-.06.59.59,0,0,0-.37.17,3.75,3.75,0,0,0-.43.57h-.44a3.54,3.54,0,0,1,.74-1,1.16,1.16,0,0,1,.77-.36.59.59,0,0,1,.47.2.75.75,0,0,1,.17.54,1.87,1.87,0,0,1-.08.51c0,.21-.18.59-.37,1.14a7.8,7.8,0,0,0-.29.85,1.55,1.55,0,0,0-.08.37.32.32,0,0,0,.06.2.24.24,0,0,0,.17.07.54.54,0,0,0,.35-.19,2.87,2.87,0,0,0,.39-.58Zm-1.31-4.2a.51.51,0,0,1,.15-.37.48.48,0,0,1,.36-.15.5.5,0,0,1,.37.15.49.49,0,0,1,.16.37.55.55,0,0,1-.53.53.53.53,0,0,1-.51-.53Z"/><path class="cls-7" d="M41,291.16h-.83l.12-.41h.82a3,3,0,0,1,.64-1.26,1.39,1.39,0,0,1,1-.41,1,1,0,0,1,.62.19.58.58,0,0,1,.25.49.45.45,0,0,1-.12.33.39.39,0,0,1-.31.13.53.53,0,0,1-.32-.1.31.31,0,0,1-.12-.26.46.46,0,0,1,.08-.24l0,0s0,0-.06-.05a.21.21,0,0,0-.12,0,.56.56,0,0,0-.47.3,2.79,2.79,0,0,0-.35.95h.77l-.09.41h-.78L41,294.29a5,5,0,0,1-.69,1.75,1.25,1.25,0,0,1-1,.53,1,1,0,0,1-.61-.19.54.54,0,0,1-.24-.45.57.57,0,0,1,.11-.36.4.4,0,0,1,.31-.14.46.46,0,0,1,.32.1.33.33,0,0,1,.12.27.39.39,0,0,1-.1.26l0,0s0,0,.07,0h.15c.18,0,.33-.13.47-.41a8,8,0,0,0,.45-1.53Z"/><path class="cls-7" d="M43.78,291.16H43l.12-.41h.82a2.86,2.86,0,0,1,.64-1.26,1.39,1.39,0,0,1,1-.41,1,1,0,0,1,.62.19.6.6,0,0,1,.24.49.44.44,0,0,1-.11.33.39.39,0,0,1-.31.13.53.53,0,0,1-.32-.1.31.31,0,0,1-.12-.26.46.46,0,0,1,.08-.24l0,0s0,0-.05-.05a.21.21,0,0,0-.12,0,.58.58,0,0,0-.48.3,3.05,3.05,0,0,0-.34.95h.77l-.09.41h-.78l-.74,3.13a5,5,0,0,1-.7,1.75,1.23,1.23,0,0,1-1,.53,1,1,0,0,1-.61-.19.54.54,0,0,1-.24-.45.57.57,0,0,1,.11-.36.4.4,0,0,1,.31-.14.47.47,0,0,1,.32.1.33.33,0,0,1,.12.27.39.39,0,0,1-.1.26l0,0s0,0,.07,0h.14c.19,0,.34-.13.48-.41a8,8,0,0,0,.45-1.53Z"/><path class="cls-7" d="M49.1,293.71a3.13,3.13,0,0,1-.89,1.11,1.84,1.84,0,0,1-1.12.37,1.53,1.53,0,0,1-1.18-.47,1.79,1.79,0,0,1-.44-1.26,3,3,0,0,1,1-2.21,2.52,2.52,0,0,1,.75-.48,2.09,2.09,0,0,1,.8-.17,1.31,1.31,0,0,1,.85.26.88.88,0,0,1,.32.7,1.25,1.25,0,0,1-.73,1.08,5.06,5.06,0,0,1-2.07.5,2.6,2.6,0,0,0-.07.31,1,1,0,0,0,0,.23,1.06,1.06,0,0,0,.25.75.85.85,0,0,0,.67.28,1.3,1.3,0,0,0,.77-.26,2.64,2.64,0,0,0,.68-.75Zm-2.67-.95a3.13,3.13,0,0,0,1.42-.37.9.9,0,0,0,.52-.77.57.57,0,0,0-.15-.42.53.53,0,0,0-.39-.15,1.06,1.06,0,0,0-.8.44A3.67,3.67,0,0,0,46.43,292.76Z"/><path class="cls-7" d="M51.57,291.77a3.65,3.65,0,0,1,.62-.88.9.9,0,0,1,.62-.28.56.56,0,0,1,.43.17.64.64,0,0,1,.16.47.53.53,0,0,1-.15.39.53.53,0,0,1-.69.06.29.29,0,0,1-.12-.25v-.05a.35.35,0,0,0,0-.07l0,0c-.23,0-.5.36-.82,1.06a14.26,14.26,0,0,0-.84,2.7H50l.59-1.94c.15-.48.25-.83.3-1.06a2.08,2.08,0,0,0,.09-.48.35.35,0,0,0,0-.18.12.12,0,0,0-.12-.08.61.61,0,0,0-.38.17,3.4,3.4,0,0,0-.44.58h-.43a3.42,3.42,0,0,1,.73-1,1.13,1.13,0,0,1,.77-.37.58.58,0,0,1,.45.18.81.81,0,0,1,.15.52.62.62,0,0,1,0,.13A1.52,1.52,0,0,1,51.57,291.77Z"/><path class="cls-7" d="M57.17,293.71a3,3,0,0,1-.9,1.11,1.83,1.83,0,0,1-1.11.37,1.52,1.52,0,0,1-1.18-.47,1.75,1.75,0,0,1-.45-1.26,2.92,2.92,0,0,1,1-2.21,2.47,2.47,0,0,1,.74-.48,2.14,2.14,0,0,1,.81-.17,1.33,1.33,0,0,1,.85.26.87.87,0,0,1,.31.7,1.23,1.23,0,0,1-.73,1.08,5.06,5.06,0,0,1-2.07.5c0,.12-.05.22-.07.31s0,.17,0,.23a1.11,1.11,0,0,0,.25.75.85.85,0,0,0,.67.28,1.28,1.28,0,0,0,.77-.26,2.53,2.53,0,0,0,.69-.75Zm-2.68-.95a3.17,3.17,0,0,0,1.43-.37.89.89,0,0,0,.51-.77.61.61,0,0,0-.14-.42.54.54,0,0,0-.4-.15,1,1,0,0,0-.79.44A3.5,3.5,0,0,0,54.49,292.76Z"/><path class="cls-7" d="M58.8,295.07H58l.6-1.94c.14-.48.25-.83.3-1.06a1.93,1.93,0,0,0,.08-.48.32.32,0,0,0,0-.18.13.13,0,0,0-.12-.07.61.61,0,0,0-.39.17,2.83,2.83,0,0,0-.44.57h-.43a3.61,3.61,0,0,1,.73-1,1.17,1.17,0,0,1,.77-.37.53.53,0,0,1,.45.19.77.77,0,0,1,.16.54c0,.06,0,.12,0,.18l0,.22a3.4,3.4,0,0,1,.77-.87,1.26,1.26,0,0,1,.76-.27.86.86,0,0,1,.62.23.89.89,0,0,1,.23.63,4.85,4.85,0,0,1-.37,1.42l0,.12c-.14.38-.24.66-.29.84a1.6,1.6,0,0,0-.08.38.32.32,0,0,0,.06.2.24.24,0,0,0,.16.07.57.57,0,0,0,.38-.24,2.8,2.8,0,0,0,.44-.65h.44a3.8,3.8,0,0,1-.75,1.14,1.12,1.12,0,0,1-.8.37.63.63,0,0,1-.5-.19.77.77,0,0,1-.18-.54,2.35,2.35,0,0,1,.09-.57,6.27,6.27,0,0,1,.26-.83l.12-.33a4.12,4.12,0,0,0,.33-1.16.34.34,0,0,0-.1-.28.39.39,0,0,0-.29-.1c-.4,0-.78.34-1.14,1A11.13,11.13,0,0,0,58.8,295.07Z"/><path class="cls-7" d="M64.08,291.16h-.82l.12-.41h.82l.43-1.55h.76L65,290.75h.76l-.09.41h-.78L64.08,294a.8.8,0,0,0,0,.21,1.5,1.5,0,0,0,0,.2.28.28,0,0,0,.06.2.25.25,0,0,0,.19.06.74.74,0,0,0,.46-.23,3.25,3.25,0,0,0,.49-.69h.47a3.55,3.55,0,0,1-.79,1.13,1.35,1.35,0,0,1-.91.37.72.72,0,0,1-.53-.2.81.81,0,0,1-.2-.57,4.35,4.35,0,0,1,.16-.84l0,0Z"/><path class="cls-7" d="M68.53,293.76a3.76,3.76,0,0,1-.76,1.1,1.1,1.1,0,0,1-.77.34.65.65,0,0,1-.5-.19.77.77,0,0,1-.18-.54,8.19,8.19,0,0,1,.34-1.52l0-.13.64-2.31a2.89,2.89,0,0,0,.1-.35c0-.1,0-.16,0-.21a.23.23,0,0,0-.14-.22,1.06,1.06,0,0,0-.42-.07h-.3l.12-.43.91,0,.87-.07-1.16,4.07c-.09.35-.16.61-.2.78a2.11,2.11,0,0,0-.06.36.29.29,0,0,0,.06.19.21.21,0,0,0,.16.06.49.49,0,0,0,.35-.2,3.54,3.54,0,0,0,.43-.62Z"/><path class="cls-7" d="M72.65,290.75h.7l-.94,3.65a3.37,3.37,0,0,1-.84,1.65,2,2,0,0,1-1.45.53,1.66,1.66,0,0,1-.9-.21.63.63,0,0,1-.33-.55.48.48,0,0,1,.14-.36.43.43,0,0,1,.33-.15.5.5,0,0,1,.34.11.35.35,0,0,1,.13.3.39.39,0,0,1,0,.18l0,.09s0,.08.13.12a.65.65,0,0,0,.29.06,1.19,1.19,0,0,0,.95-.48,3.2,3.2,0,0,0,.57-1.4,2.25,2.25,0,0,1-.68.6,1.57,1.57,0,0,1-.75.22.84.84,0,0,1-.61-.23.82.82,0,0,1-.23-.61,4.79,4.79,0,0,1,.36-1.37,1.09,1.09,0,0,1,0-.14c.14-.38.23-.65.28-.83a1.6,1.6,0,0,0,.08-.36.26.26,0,0,0-.07-.2.21.21,0,0,0-.17-.08.46.46,0,0,0-.32.18,3,3,0,0,0-.41.59h-.44a3.47,3.47,0,0,1,.71-1,1.13,1.13,0,0,1,.77-.33.63.63,0,0,1,.5.19.71.71,0,0,1,.18.52,2.2,2.2,0,0,1-.08.56c-.06.23-.15.5-.26.81,0,.08-.08.19-.13.34a4,4,0,0,0-.33,1.13.38.38,0,0,0,.1.28.45.45,0,0,0,.3.09c.44,0,.83-.32,1.18-1A11.38,11.38,0,0,0,72.65,290.75Z"/><path class="cls-7" d="M80.94,293.78a1,1,0,0,0,.24.6,1.08,1.08,0,0,0,.61.17l-.13.52H79.24l.13-.52a1.6,1.6,0,0,0,.62-.13.37.37,0,0,0,.15-.33,1.21,1.21,0,0,0,0-.18c0-.07,0-.14,0-.23L80,293.1H77.85l-.42.81a1.67,1.67,0,0,0-.08.2.61.61,0,0,0,0,.16.22.22,0,0,0,.16.21,1.82,1.82,0,0,0,.58.07l-.13.52H75.84l.13-.52a1,1,0,0,0,.43-.19,2,2,0,0,0,.38-.49l2.58-4.5h.88Zm-2.79-1.2h1.79l-.38-2.45Z"/><path class="cls-7" d="M83.4,291.16h-.82l.12-.41h.81a3,3,0,0,1,.65-1.26,1.35,1.35,0,0,1,1-.41,1,1,0,0,1,.63.19.6.6,0,0,1,.24.49.45.45,0,0,1-.12.33.37.37,0,0,1-.3.13.51.51,0,0,1-.32-.1.31.31,0,0,1-.12-.26.46.46,0,0,1,.08-.24.11.11,0,0,1,0,0s0,0-.05-.05l-.12,0a.57.57,0,0,0-.48.3,3,3,0,0,0-.35.95H85l-.1.41h-.77l-.74,3.13a5,5,0,0,1-.7,1.75,1.24,1.24,0,0,1-1,.53.93.93,0,0,1-.61-.19.54.54,0,0,1-.24-.45.52.52,0,0,1,.11-.36.36.36,0,0,1,.3-.14.48.48,0,0,1,.33.1.33.33,0,0,1,.12.27.4.4,0,0,1-.11.26l0,0s0,0,.06,0h.15c.18,0,.34-.13.48-.41a8.87,8.87,0,0,0,.45-1.53Z"/><path class="cls-7" d="M86.18,291.16h-.82l.12-.41h.81a2.87,2.87,0,0,1,.65-1.26,1.35,1.35,0,0,1,1-.41,1,1,0,0,1,.63.19.6.6,0,0,1,.24.49.45.45,0,0,1-.12.33.38.38,0,0,1-.3.13.51.51,0,0,1-.32-.1.31.31,0,0,1-.12-.26.38.38,0,0,1,.08-.24.11.11,0,0,1,0,0s0,0-.05-.05l-.12,0a.57.57,0,0,0-.48.3,3,3,0,0,0-.35.95h.78l-.1.41H87l-.75,3.13a4.85,4.85,0,0,1-.69,1.75,1.24,1.24,0,0,1-1,.53.93.93,0,0,1-.61-.19.55.55,0,0,1-.25-.45.52.52,0,0,1,.12-.36.36.36,0,0,1,.3-.14.48.48,0,0,1,.33.1.33.33,0,0,1,.12.27.4.4,0,0,1-.11.26l0,0s0,0,.06,0h.15c.18,0,.34-.13.47-.41a7.86,7.86,0,0,0,.46-1.53Z"/><path class="cls-7" d="M90.6,294.47a2.89,2.89,0,0,1-.69.57,1.61,1.61,0,0,1-.72.19,1.09,1.09,0,0,1-.9-.46,1.91,1.91,0,0,1-.34-1.19,3.41,3.41,0,0,1,.18-1.09,3.52,3.52,0,0,1,.53-1,2.64,2.64,0,0,1,.76-.67,1.71,1.71,0,0,1,.84-.23,1,1,0,0,1,.68.22,1.52,1.52,0,0,1,.46.67l.21-.82h.75l-.9,3.26h0a1.38,1.38,0,0,0-.07.35.32.32,0,0,0,.06.2.19.19,0,0,0,.16.07.5.5,0,0,0,.35-.19,2.74,2.74,0,0,0,.4-.58h.44a3.23,3.23,0,0,1-.69,1,1.11,1.11,0,0,1-.79.35.65.65,0,0,1-.48-.17A1,1,0,0,1,90.6,294.47Zm-.2-3.31a1,1,0,0,0-.58.19,2,2,0,0,0-.53.56,3.38,3.38,0,0,0-.4.88,3.3,3.3,0,0,0-.15,1,1.11,1.11,0,0,0,.2.69.66.66,0,0,0,.55.26,1,1,0,0,0,.52-.16,1.72,1.72,0,0,0,.48-.46,3.53,3.53,0,0,0,.66-2,1.11,1.11,0,0,0-.2-.69A.65.65,0,0,0,90.4,291.16Z"/><path class="cls-7" d="M95.73,293.81a3.4,3.4,0,0,1-.68,1,1.12,1.12,0,0,1-.8.35.63.63,0,0,1-.49-.19.77.77,0,0,1-.18-.54,2.68,2.68,0,0,1,.08-.55,5.22,5.22,0,0,1,.22-.72c.06-.17.15-.39.26-.67a4.55,4.55,0,0,0,.3-.94.31.31,0,0,0,0-.19.19.19,0,0,0-.15-.06.55.55,0,0,0-.36.17,2.77,2.77,0,0,0-.43.57H93a3.35,3.35,0,0,1,.73-1,1.16,1.16,0,0,1,.78-.36.6.6,0,0,1,.47.2.79.79,0,0,1,.17.54,2,2,0,0,1-.09.51c0,.21-.18.59-.37,1.14-.15.39-.24.68-.29.85a1.55,1.55,0,0,0-.08.37.32.32,0,0,0,.06.2.24.24,0,0,0,.17.07.54.54,0,0,0,.35-.19,2.87,2.87,0,0,0,.39-.58Zm-1.31-4.2a.51.51,0,0,1,.15-.37.49.49,0,0,1,.36-.15.52.52,0,0,1,.38.15.51.51,0,0,1,.15.37.47.47,0,0,1-.16.37.51.51,0,0,1-.37.16.53.53,0,0,1-.51-.53Z"/><path class="cls-7" d="M97.23,295.07h-.79l.59-1.94c.15-.48.25-.83.31-1.06a2.57,2.57,0,0,0,.08-.48.32.32,0,0,0,0-.18.13.13,0,0,0-.12-.07.61.61,0,0,0-.39.17,2.85,2.85,0,0,0-.43.57H96a3.42,3.42,0,0,1,.73-1,1.15,1.15,0,0,1,.77-.37.53.53,0,0,1,.45.19.83.83,0,0,1,.15.54,1.09,1.09,0,0,1,0,.18l0,.22a3.83,3.83,0,0,1,.77-.87,1.29,1.29,0,0,1,.77-.27.79.79,0,0,1,.84.86,4.85,4.85,0,0,1-.37,1.42l0,.12c-.14.38-.23.66-.28.84a1.21,1.21,0,0,0-.08.38.32.32,0,0,0,.06.2.22.22,0,0,0,.16.07c.11,0,.23-.08.38-.24a2.81,2.81,0,0,0,.43-.65h.44a3.8,3.8,0,0,1-.74,1.14,1.13,1.13,0,0,1-.81.37.61.61,0,0,1-.49-.19.77.77,0,0,1-.18-.54,2.85,2.85,0,0,1,.08-.57,8.63,8.63,0,0,1,.27-.83c0-.08.07-.19.12-.33a4,4,0,0,0,.32-1.16.34.34,0,0,0-.1-.28.37.37,0,0,0-.29-.1c-.39,0-.77.34-1.14,1A11.57,11.57,0,0,0,97.23,295.07Z"/><path class="cls-7" d="M105.15,293.71a3.13,3.13,0,0,1-.89,1.11,1.84,1.84,0,0,1-1.12.37,1.53,1.53,0,0,1-1.18-.47,1.79,1.79,0,0,1-.44-1.26,2.91,2.91,0,0,1,.25-1.21,3,3,0,0,1,.72-1,2.52,2.52,0,0,1,.75-.48,2.14,2.14,0,0,1,.81-.17,1.3,1.3,0,0,1,.84.26.88.88,0,0,1,.32.7,1.23,1.23,0,0,1-.73,1.08,5.06,5.06,0,0,1-2.07.5,2.6,2.6,0,0,0-.07.31c0,.09,0,.17,0,.23a1.06,1.06,0,0,0,.25.75.85.85,0,0,0,.67.28,1.3,1.3,0,0,0,.77-.26,2.67,2.67,0,0,0,.69-.75Zm-2.67-.95a3.09,3.09,0,0,0,1.42-.37.88.88,0,0,0,.52-.77.57.57,0,0,0-.15-.42.51.51,0,0,0-.39-.15,1.06,1.06,0,0,0-.8.44A3.67,3.67,0,0,0,102.48,292.76Z"/><path class="cls-7" d="M108.55,294.47a2.89,2.89,0,0,1-.69.57,1.61,1.61,0,0,1-.72.19,1.09,1.09,0,0,1-.9-.46,1.91,1.91,0,0,1-.34-1.19,3.41,3.41,0,0,1,.18-1.09,3.52,3.52,0,0,1,.53-1,2.64,2.64,0,0,1,.76-.67,1.71,1.71,0,0,1,.84-.23,1,1,0,0,1,.68.22,1.52,1.52,0,0,1,.46.67l.35-1.22a.74.74,0,0,0,0-.18,1,1,0,0,0,0-.16.25.25,0,0,0-.14-.22,1.16,1.16,0,0,0-.43-.07h-.29l.12-.43.93,0,.81-.07L109.38,294h0a1.38,1.38,0,0,0-.07.35.33.33,0,0,0,.06.21.23.23,0,0,0,.18.07.51.51,0,0,0,.36-.2,2.74,2.74,0,0,0,.4-.58h.44a3.23,3.23,0,0,1-.69,1,1.11,1.11,0,0,1-.79.35.65.65,0,0,1-.48-.18A.94.94,0,0,1,108.55,294.47Zm-.21-3.31a1,1,0,0,0-.59.19,2,2,0,0,0-.52.56,3.08,3.08,0,0,0-.4.88,3.3,3.3,0,0,0-.15,1,1.11,1.11,0,0,0,.2.69.68.68,0,0,0,.55.26,1.05,1.05,0,0,0,.53-.16,2,2,0,0,0,.48-.46,3.62,3.62,0,0,0,.65-2,1.05,1.05,0,0,0-.2-.69A.65.65,0,0,0,108.34,291.16Z"/><path class="cls-7" d="M112.7,290.27l-.1,0h-.09a.44.44,0,0,1-.34-.13.49.49,0,0,1-.12-.36.54.54,0,0,1,.16-.4.58.58,0,0,1,.83,0,.77.77,0,0,1,.16.52,1.37,1.37,0,0,1-.4.95,2.75,2.75,0,0,1-1.11.67v-.32a2.67,2.67,0,0,0,.68-.45A1.19,1.19,0,0,0,112.7,290.27Zm1.78,0-.1,0h-.08a.41.41,0,0,1-.34-.13.49.49,0,0,1-.12-.36.54.54,0,0,1,.15-.4.54.54,0,0,1,.41-.16.52.52,0,0,1,.42.19.77.77,0,0,1,.16.52,1.37,1.37,0,0,1-.4.95,2.62,2.62,0,0,1-1.11.67v-.32a2.5,2.5,0,0,0,.68-.45A1.19,1.19,0,0,0,114.48,290.27Z"/></svg>