<svg id="Layer_1" data-name="Layer 1" xmlns="http://www.w3.org/2000/svg" xmlns:xlink="http://www.w3.org/1999/xlink" viewBox="49.5 204.62 414.35 86.78"><defs><style>.cls-1{font-size:9.36px;fill:#b70b09;font-family:Freehand521BT-RegularC, Freehand521 BT;letter-spacing:-0.1em;}.cls-2,.cls-3{letter-spacing:-0.01em;}.cls-10,.cls-11,.cls-12,.cls-13,.cls-14,.cls-3,.cls-4,.cls-5,.cls-6,.cls-7,.cls-8,.cls-9{font-family:FONTSPRINGDEMO-RosalesBoldItRegular, FONTSPRING DEMO - Rosales Bold It;font-weight:700;font-style:italic;}.cls-4{letter-spacing:-0.06em;}.cls-5{letter-spacing:-0.02em;}.cls-6{letter-spacing:-0.02em;}.cls-7{letter-spacing:-0.01em;}.cls-8{letter-spacing:-0.01em;}.cls-9{letter-spacing:0em;}.cls-10{letter-spacing:-0.02em;}.cls-11{letter-spacing:-0.02em;}.cls-12{letter-spacing:-0.06em;}.cls-13{letter-spacing:-0.02em;}.cls-14{letter-spacing:-0.02em;}.cls-15{letter-spacing:-0.01em;}.cls-16{fill:#155183;}.cls-17{fill:#fff;}.cls-18{fill:url(#linear-gradient);}.cls-19{fill:#2596ff;}.cls-20{fill:#145182;}.cls-21{fill:#5bc5d3;}</style><linearGradient id="linear-gradient" x1="139.96" y1="291.4" x2="139.96" y2="204.62" gradientUnits="userSpaceOnUse"><stop offset="0" stop-color="#27aae1" stop-opacity="0"/><stop offset="0.01" stop-color="#27aae1" stop-opacity="0.12"/><stop offset="0.03" stop-color="#27aae1" stop-opacity="0.3"/><stop offset="0.06" stop-color="#27aae1" stop-opacity="0.47"/><stop offset="0.09" stop-color="#27aae1" stop-opacity="0.61"/><stop offset="0.12" stop-color="#27aae1" stop-opacity="0.74"/><stop offset="0.15" stop-color="#27aae1" stop-opacity="0.83"/><stop offset="0.19" stop-color="#27aae1" stop-opacity="0.91"/><stop offset="0.24" stop-color="#27aae1" stop-opacity="0.96"/><stop offset="0.31" stop-color="#27aae1" stop-opacity="0.99"/><stop offset="0.5" stop-color="#27aae1"/><stop offset="0.69" stop-color="#27aae1" stop-opacity="0.99"/><stop offset="0.76" stop-color="#27aae1" stop-opacity="0.96"/><stop offset="0.81" stop-color="#27aae1" stop-opacity="0.91"/><stop offset="0.85" stop-color="#27aae1" stop-opacity="0.83"/><stop offset="0.88" stop-color="#27aae1" stop-opacity="0.74"/><stop offset="0.91" stop-color="#27aae1" stop-opacity="0.61"/><stop offset="0.94" stop-color="#27aae1" stop-opacity="0.47"/><stop offset="0.96" stop-color="#27aae1" stop-opacity="0.3"/><stop offset="0.99" stop-color="#27aae1" stop-opacity="0.12"/><stop offset="1" stop-color="#27aae1" stop-opacity="0"/></linearGradient></defs><title>Aifinity Logo 3</title><text class="cls-1" transform="translate(50.5 288.36)">‘<tspan class="cls-2" x="1.54" y="0">’</tspan><tspan class="cls-3" x="3.91" y="0">Di</tspan><tspan class="cls-4" x="12.1" y="0">f</tspan><tspan class="cls-5" x="14.97" y="0">f</tspan><tspan class="cls-3" x="18.19" y="0">e</tspan><tspan class="cls-6" x="22.39" y="0">r</tspan><tspan class="cls-3" x="25.67" y="0">e</tspan><tspan class="cls-7" x="29.87" y="0">n</tspan><tspan class="cls-8" x="34.85" y="0">t</tspan><tspan class="cls-9" x="38.51" y="0">l</tspan><tspan class="cls-8" x="40.83" y="0">y</tspan><tspan class="cls-10" x="45.25" y="0"> </tspan><tspan class="cls-11" x="46.97" y="0">A</tspan><tspan class="cls-12" x="52.62" y="0">f</tspan><tspan class="cls-13" x="55.48" y="0">f</tspan><tspan class="cls-14" x="58.7" y="0">a</tspan><tspan class="cls-3" x="63.56" y="0">ined</tspan><tspan x="79.92" y="0">‘</tspan><tspan class="cls-15" x="81.45" y="0">’</tspan></text><rect class="cls-16" x="147.17" y="258.71" width="316.68" height="31.56"/><path class="cls-17" d="M158.55,269.8h-4.29v-2.5h11.62v2.5h-4.27v11.63h-3.06Z"/><path class="cls-17" d="M171.78,275.77v5.66h-3V267.3H175c3.08,0,4.73,1.7,4.73,3.88a3.37,3.37,0,0,1-2.05,3.34c.7.26,1.76,1,1.76,3.52v.7a11.47,11.47,0,0,0,.2,2.69h-2.9a10.22,10.22,0,0,1-.29-3.17v-.21c0-1.54-.39-2.28-2.67-2.28Zm0-2.43h2.56c1.68,0,2.32-.63,2.32-1.82s-.75-1.79-2.24-1.79h-2.64Z"/><path class="cls-17" d="M186.38,278.17l-1.1,3.26h-3l4.8-14.13h3.84l5,14.13H192.7l-1.16-3.26Zm4.5-2.51c-1-3-1.64-4.88-2-6.16h0c-.35,1.4-1,3.61-1.86,6.16Z"/><path class="cls-17" d="M198.75,281.43V267.3h3.78c1.77,3.17,5,8.89,5.68,10.43h0c-.16-1.47-.16-3.92-.16-6.24V267.3h2.77v14.13h-3.59c-1.52-2.76-5.13-9.33-5.83-11h0c.1,1.24.14,4.14.14,6.67v4.3Z"/><path class="cls-17" d="M217.23,277.29c.32,1.42,1.34,2,3,2s2.33-.65,2.33-1.68-.68-1.65-3.1-2.21c-3.84-.9-4.79-2.3-4.79-4.21,0-2.46,1.84-4.13,5.18-4.13,3.76,0,5.25,2,5.45,4.08H222.2c-.15-.87-.63-1.81-2.45-1.81-1.24,0-2,.51-2,1.51s.6,1.38,2.88,1.91c4.11,1,5,2.5,5,4.49,0,2.58-2,4.35-5.69,4.35-3.58,0-5.47-1.77-5.81-4.34Z"/><path class="cls-17" d="M235.17,267.3h3.06v11.63h7l-.35,2.5h-9.75Z"/><path class="cls-17" d="M260.88,274.32c0,3.93-2.36,7.31-6.95,7.31-4.43,0-6.75-3.22-6.75-7.27s2.56-7.26,6.95-7.26C258.26,267.1,260.88,270,260.88,274.32Zm-10.55,0c0,2.76,1.21,4.85,3.72,4.85,2.71,0,3.68-2.28,3.68-4.79,0-2.68-1.1-4.78-3.73-4.78S250.33,271.55,250.33,274.3Z"/><path class="cls-17" d="M276.87,281.43h-2.24a7.92,7.92,0,0,1-.24-1.39c-.78,1-2.16,1.63-4.12,1.63-4.1,0-6.4-3.1-6.4-7.13,0-4.24,2.47-7.44,6.93-7.44,3.63,0,5.77,2,6.12,4.46h-3.06a2.86,2.86,0,0,0-3.1-2.07c-2.9,0-3.73,2.43-3.73,4.92s1,4.82,3.75,4.82a2.79,2.79,0,0,0,3.09-3.07V276h-3.1v-2.51h6.1Z"/><path class="cls-17" d="M284.06,267.3v14.13H281V267.3Z"/><path class="cls-17" d="M290.43,277.29c.32,1.42,1.34,2,3,2s2.33-.65,2.33-1.68-.68-1.65-3.1-2.21c-3.84-.9-4.79-2.3-4.79-4.21,0-2.46,1.84-4.13,5.18-4.13,3.75,0,5.25,2,5.45,4.08h-3.08c-.14-.87-.63-1.81-2.45-1.81-1.24,0-2,.51-2,1.51s.61,1.38,2.89,1.91c4.11,1,5,2.5,5,4.49,0,2.58-2,4.35-5.69,4.35-3.58,0-5.47-1.77-5.81-4.34Z"/><path class="cls-17" d="M305.09,269.8H300.8v-2.5h11.62v2.5h-4.27v11.63h-3.06Z"/><path class="cls-17" d="M318.39,267.3v14.13h-3.05V267.3Z"/><path class="cls-17" d="M334.77,277.07c-.57,2.64-2.56,4.56-6.1,4.56-4.48,0-6.59-3.17-6.59-7.19s2.18-7.34,6.74-7.34c3.76,0,5.59,2.2,5.93,4.57H331.7a2.79,2.79,0,0,0-3-2.18c-2.52,0-3.49,2.27-3.49,4.84,0,2.39.85,4.9,3.58,4.9a2.79,2.79,0,0,0,2.88-2.16Z"/><path class="cls-17" d="M340.43,277.29c.33,1.42,1.34,2,3,2s2.33-.65,2.33-1.68-.68-1.65-3.1-2.21c-3.85-.9-4.8-2.3-4.8-4.21,0-2.46,1.85-4.13,5.19-4.13,3.75,0,5.25,2,5.45,4.08H345.4c-.15-.87-.63-1.81-2.45-1.81-1.24,0-2,.51-2,1.51s.6,1.38,2.89,1.91c4.11,1,5,2.5,5,4.49,0,2.58-2,4.35-5.69,4.35s-5.48-1.77-5.81-4.34Z"/><path class="cls-17" d="M358.38,267.3h5.84c3,0,5,1.69,5,4.38,0,3.07-2.33,4.47-5.12,4.47h-2.71v5.28h-3.06Zm3.06,6.42h2.33c1.41,0,2.41-.54,2.41-2s-1.05-2-2.35-2h-2.39Z"/><path class="cls-17" d="M376.31,281.43l-5-14.13h3.28l2.1,6.53c.64,2,1.13,3.65,1.45,5.09h0a52.5,52.5,0,0,1,1.52-5.05l2.2-6.57H385l-5.12,14.13Z"/><path class="cls-17" d="M391.65,269.8h-4.3v-2.5H399v2.5H394.7v11.63h-3.05Z"/><path class="cls-17" d="M399.77,281.43v-3.6h3.16v3.6Z"/><path class="cls-17" d="M418.59,267.3h3.06v11.63h7l-.35,2.5h-9.74Z"/><path class="cls-17" d="M432.31,269.8H428v-2.5h11.63v2.5h-4.28v11.63h-3.06Z"/><path class="cls-17" d="M442.56,267.3h5.6c4.12,0,6.81,2.71,6.81,6.89s-2.61,7.24-6.94,7.24h-5.47ZM445.61,279h2.3c2.7,0,3.9-2,3.9-4.76,0-2.31-1.12-4.43-3.89-4.43h-2.31Z"/><rect class="cls-18" x="139.47" y="204.62" width="0.98" height="86.78"/><path class="cls-16" d="M147.11,252.57c.06-.35.09-.56.18-.62l23.56-44.39a3.45,3.45,0,0,1,3.12-2h10.78a2.29,2.29,0,0,1,2.44,2L195.91,252c.06.06,0,.27,0,.62a1.87,1.87,0,0,1-1.7,1.46h-9a1.88,1.88,0,0,1-2.11-1.53l-2-9.81a56.4,56.4,0,0,1-18.67,3.06h-2.36a2.26,2.26,0,0,1,1.58,1.33,3,3,0,0,1-.32,2.78l-1.42,2.64A2.77,2.77,0,0,1,157.3,254h-9a1.18,1.18,0,0,1-1.22-1.46Zm30.18-34.85L168,235.81c3.58-.21,8.59-1.05,12.08-2.79Z"/><path class="cls-16" d="M206.1,211.39a7.84,7.84,0,0,1,2.61-4.38,9.47,9.47,0,0,1,2.16-1.25,6.84,6.84,0,0,1,2.3-.42h27.89a1.59,1.59,0,0,1,1.51,1.81l-1.24,7.37a1.81,1.81,0,0,1-.75,1.18,2,2,0,0,1-1.34.49h-25a3.13,3.13,0,0,1,3.2,3.76l-1,5.91h16.7c1.18,0,1.7.62,1.5,1.81l-1.22,7.3a1.73,1.73,0,0,1-.7,1.25,2,2,0,0,1-1.4.49H210.77A3.15,3.15,0,0,1,214,240.4l-2,11.68a2,2,0,0,1-.69,1.26,1.78,1.78,0,0,1-1.34.48h-9.25a1.37,1.37,0,0,1-1.45-1.74Z"/><path class="cls-16" d="M247,211.39a7.79,7.79,0,0,1,2.61-4.38,9.19,9.19,0,0,1,2.15-1.25,6.88,6.88,0,0,1,2.3-.42H282a1.59,1.59,0,0,1,1.51,1.81l-1.23,7.37a1.82,1.82,0,0,1-.76,1.18,1.93,1.93,0,0,1-1.33.49h-25A3.13,3.13,0,0,1,258.3,220l-1,5.91H274c1.18,0,1.7.62,1.5,1.81l-1.22,7.3a1.76,1.76,0,0,1-.69,1.25,2,2,0,0,1-1.41.49H251.67a3.15,3.15,0,0,1,3.21,3.69l-1.95,11.68a2,2,0,0,1-.7,1.26,1.77,1.77,0,0,1-1.33.48h-9.25a1.36,1.36,0,0,1-1.45-1.74Z"/><path class="cls-16" d="M287.76,211.46a7.33,7.33,0,0,1,7.06-6.05h5.57a1.28,1.28,0,0,1,1.17.48,1.45,1.45,0,0,1,.27,1.26l-7.53,45a1.82,1.82,0,0,1-.68,1.19,1.85,1.85,0,0,1-1.35.55H282.4a1.57,1.57,0,0,1-1.45-1.74Z"/><path class="cls-16" d="M308.43,211.39a7.45,7.45,0,0,1,7.06-6h2.3a3.47,3.47,0,0,1,3.6,2.15c2,4.25,3.86,8.14,5.45,11.55,1,2.09,1.8,3.76,2.37,4.94s1.06,2.37,1.58,3.41.93,2,1.29,2.71.57,1.18.61,1.32l4-20a7.41,7.41,0,0,1,7.13-6h4.46a1.45,1.45,0,0,1,1.17.48,1.74,1.74,0,0,1,.26,1.33L342.19,252a2.3,2.3,0,0,1-.7,1.26,2.12,2.12,0,0,1-1.35.55h-7.86a2.11,2.11,0,0,1-2.14-1.32Q327,246.14,324.55,241c-1-2-1.82-3.68-2.37-4.94s-1.14-2.36-1.66-3.4-.94-1.88-1.3-2.65a11.18,11.18,0,0,1-.62-1.25l-4.6,23.3a2.18,2.18,0,0,1-2.1,1.74h-8.83a1.57,1.57,0,0,1-1.45-1.74Z"/><path class="cls-16" d="M356.21,211.46a7.33,7.33,0,0,1,7.06-6.05h5.57a1.28,1.28,0,0,1,1.17.48,1.49,1.49,0,0,1,.28,1.26l-7.54,45a1.82,1.82,0,0,1-.68,1.19,1.85,1.85,0,0,1-1.34.55h-9.88a1.57,1.57,0,0,1-1.45-1.74Z"/><path class="cls-16" d="M414.06,205.34a1.4,1.4,0,0,1,1.52,1.74l-1.3,7.79a2.09,2.09,0,0,1-2.1,1.74H396a3.23,3.23,0,0,1,3.36,3.61l-5.33,31.86a1.83,1.83,0,0,1-.75,1.19,2,2,0,0,1-1.34.48h-9.67a1.45,1.45,0,0,1-1.17-.48,1.29,1.29,0,0,1-.36-1.19l5.59-33.39a1.69,1.69,0,0,0-1.74-2.08H374.55a1.47,1.47,0,0,1-1.52-1.74l.59-3.55a7.5,7.5,0,0,1,7.05-6Z"/><path class="cls-16" d="M429,239.84a8.13,8.13,0,0,0-.27-4.17l-10.35-28a1.28,1.28,0,0,1-.08-.76,1.87,1.87,0,0,1,1.71-1.46h9.11a3.8,3.8,0,0,1,1.47.34,1.87,1.87,0,0,1,.78,1.19c1.16,3,2.24,5.7,3.15,8.14.53,1.46,1,2.64,1.37,3.47s.63,1.67.91,2.44a10,10,0,0,0,.74,1.88c.19.48.27.83.33.9.71-.07.91-.42,1.35-1s.82-1.19,1.43-2l1.92-2.71,2.18-3.06c1.73-2.44,3.71-5.15,5.88-8.14a3.39,3.39,0,0,1,2.76-1.53h9.12a1.45,1.45,0,0,1,1,.41,1.47,1.47,0,0,1,.24,1.05,1.63,1.63,0,0,1-.33.76c-3.56,5-6.75,9.53-9.57,13.5-2.27,3.2-4.56,6.47-6.84,9.74-.84,1.25-1.57,2.29-2.19,3.13l-1.1,1.53a8,8,0,0,0-1,1.94,8.9,8.9,0,0,0-.62,2.09L440,252.22a1.77,1.77,0,0,1-.7,1.26,2,2,0,0,1-1.4.48H428.4a1.37,1.37,0,0,1-1.45-1.74Z"/><polygon class="cls-19" points="114.53 223.55 91.95 223.55 81.45 205.55 104.13 205.55 114.53 223.55"/><polygon class="cls-20" points="91.95 223.55 80.6 243.63 70.29 225.94 69.98 225.41 69.98 225.41 81.45 205.55 91.95 223.55"/><polygon class="cls-19" points="73.58 258.28 63.25 276.37 63.24 276.37 63.24 276.37 51.9 256.73 51.9 256.73 62.3 238.72 73.58 258.28"/><polygon class="cls-20" points="96.65 258.07 86.19 276.37 86.18 276.37 63.24 276.37 63.25 276.37 73.58 258.28 96.65 258.07"/><polygon class="cls-19" points="133.68 256.84 122.41 276.37 122.4 276.37 122.34 276.48 101.55 276.48 101.61 276.37 112.84 256.92 133.61 256.84 133.68 256.84"/><polygon class="cls-20" points="133.68 256.84 133.61 256.84 112.84 256.92 101.13 237.06 122.21 236.97 133.65 256.78 133.68 256.84"/><polygon class="cls-21" points="114.89 226.84 112.22 231.57 111 233.73 110.98 233.73 95.38 233.8 109.03 256.94 98.76 274.73 94.82 267.9 102.35 254.73 75.48 254.97 64.85 236.56 72.67 236.56 80.65 250.23 93.87 226.84 114.89 226.84"/></svg>